<svg xmlns="http://www.w3.org/2000/svg" width="780" height="72" viewBox="0 0 780 72" role="img" aria-label="20260216 crowd by postal">
  <style>text{font-family:system-ui, -apple-system, Segoe UI, sans-serif;fill:#111111;font-size:12px;}</style>
  <text x="210" y="18" font-size="14" font-weight="600">20260216</text>
  <line x1="210.00" y1="48" x2="210.00" y2="48" stroke="#dfe6eb" stroke-width="1"/>
  <line x1="255.83" y1="48" x2="255.83" y2="48" stroke="#dfe6eb" stroke-width="1"/>
  <line x1="301.67" y1="48" x2="301.67" y2="48" stroke="#9aa8b3" stroke-width="1"/>
  <line x1="347.50" y1="48" x2="347.50" y2="48" stroke="#dfe6eb" stroke-width="1"/>
  <line x1="393.33" y1="48" x2="393.33" y2="48" stroke="#dfe6eb" stroke-width="1"/>
  <line x1="439.17" y1="48" x2="439.17" y2="48" stroke="#9aa8b3" stroke-width="1"/>
  <line x1="485.00" y1="48" x2="485.00" y2="48" stroke="#dfe6eb" stroke-width="1"/>
  <line x1="530.83" y1="48" x2="530.83" y2="48" stroke="#dfe6eb" stroke-width="1"/>
  <line x1="576.67" y1="48" x2="576.67" y2="48" stroke="#9aa8b3" stroke-width="1"/>
  <line x1="622.50" y1="48" x2="622.50" y2="48" stroke="#dfe6eb" stroke-width="1"/>
  <line x1="668.33" y1="48" x2="668.33" y2="48" stroke="#dfe6eb" stroke-width="1"/>
  <line x1="714.17" y1="48" x2="714.17" y2="48" stroke="#9aa8b3" stroke-width="1"/>
  <line x1="760.00" y1="48" x2="760.00" y2="48" stroke="#dfe6eb" stroke-width="1"/>
  <line x1="210" y1="38" x2="760" y2="38" stroke="#666666" stroke-width="1"/>
  <line x1="210.00" y1="38" x2="210.00" y2="42" stroke="#666666" stroke-width="1"/>
  <text x="198.00" y="32">10am</text>
  <line x1="255.83" y1="38" x2="255.83" y2="42" stroke="#666666" stroke-width="1"/>
  <text x="243.83" y="32">11am</text>
  <line x1="301.67" y1="38" x2="301.67" y2="42" stroke="#666666" stroke-width="1"/>
  <text x="289.67" y="32">12pm</text>
  <line x1="347.50" y1="38" x2="347.50" y2="42" stroke="#666666" stroke-width="1"/>
  <text x="335.50" y="32">1pm</text>
  <line x1="393.33" y1="38" x2="393.33" y2="42" stroke="#666666" stroke-width="1"/>
  <text x="381.33" y="32">2pm</text>
  <line x1="439.17" y1="38" x2="439.17" y2="42" stroke="#666666" stroke-width="1"/>
  <text x="427.17" y="32">3pm</text>
  <line x1="485.00" y1="38" x2="485.00" y2="42" stroke="#666666" stroke-width="1"/>
  <text x="473.00" y="32">4pm</text>
  <line x1="530.83" y1="38" x2="530.83" y2="42" stroke="#666666" stroke-width="1"/>
  <text x="518.83" y="32">5pm</text>
  <line x1="576.67" y1="38" x2="576.67" y2="42" stroke="#666666" stroke-width="1"/>
  <text x="564.67" y="32">6pm</text>
  <line x1="622.50" y1="38" x2="622.50" y2="42" stroke="#666666" stroke-width="1"/>
  <text x="610.50" y="32">7pm</text>
  <line x1="668.33" y1="38" x2="668.33" y2="42" stroke="#666666" stroke-width="1"/>
  <text x="656.33" y="32">8pm</text>
  <line x1="714.17" y1="38" x2="714.17" y2="42" stroke="#666666" stroke-width="1"/>
  <text x="702.17" y="32">9pm</text>
  <line x1="760.00" y1="38" x2="760.00" y2="42" stroke="#666666" stroke-width="1"/>
  <text x="748.00" y="32">10pm</text>
  <line x1="210" y1="56" x2="760" y2="56" stroke="#666666" stroke-width="1"/>
  <line x1="210.00" y1="56" x2="210.00" y2="60" stroke="#666666" stroke-width="1"/>
  <text x="198.00" y="72">10am</text>
  <line x1="255.83" y1="56" x2="255.83" y2="60" stroke="#666666" stroke-width="1"/>
  <text x="243.83" y="72">11am</text>
  <line x1="301.67" y1="56" x2="301.67" y2="60" stroke="#666666" stroke-width="1"/>
  <text x="289.67" y="72">12pm</text>
  <line x1="347.50" y1="56" x2="347.50" y2="60" stroke="#666666" stroke-width="1"/>
  <text x="335.50" y="72">1pm</text>
  <line x1="393.33" y1="56" x2="393.33" y2="60" stroke="#666666" stroke-width="1"/>
  <text x="381.33" y="72">2pm</text>
  <line x1="439.17" y1="56" x2="439.17" y2="60" stroke="#666666" stroke-width="1"/>
  <text x="427.17" y="72">3pm</text>
  <line x1="485.00" y1="56" x2="485.00" y2="60" stroke="#666666" stroke-width="1"/>
  <text x="473.00" y="72">4pm</text>
  <line x1="530.83" y1="56" x2="530.83" y2="60" stroke="#666666" stroke-width="1"/>
  <text x="518.83" y="72">5pm</text>
  <line x1="576.67" y1="56" x2="576.67" y2="60" stroke="#666666" stroke-width="1"/>
  <text x="564.67" y="72">6pm</text>
  <line x1="622.50" y1="56" x2="622.50" y2="60" stroke="#666666" stroke-width="1"/>
  <text x="610.50" y="72">7pm</text>
  <line x1="668.33" y1="56" x2="668.33" y2="60" stroke="#666666" stroke-width="1"/>
  <text x="656.33" y="72">8pm</text>
  <line x1="714.17" y1="56" x2="714.17" y2="60" stroke="#666666" stroke-width="1"/>
  <text x="702.17" y="72">9pm</text>
  <line x1="760.00" y1="56" x2="760.00" y2="60" stroke="#666666" stroke-width="1"/>
  <text x="748.00" y="72">10pm</text>
</svg>
